<svg xmlns="http://www.w3.org/2000/svg" width="28" height="28" viewBox="0 0 24 24" role="img" aria-labelledby="title">
  <title id="title">Gmail</title>
  <rect width="24" height="24" rx="4" fill="#fff"/>
  <path fill="#4285F4" d="M3 18h3V9.75L3 7.5V18Z"/>
  <path fill="#34A853" d="M18 18h3V7.5l-3 2.25V18Z"/>
  <path fill="#EA4335" d="M3 7.5V6.75C3 5.78 4.11 5.23 4.88 5.81L12 11.15l7.12-5.34c.77-.58 1.88-.03 1.88.94v.75L12 14.25 3 7.5Z"/>
  <path fill="#FBBC04" d="M3 7.5 6 9.75V6.66L4.88 5.81C4.11 5.23 3 5.78 3 6.75v.75Z"/>
  <path fill="#C5221F" d="m18 9.75 3-2.25v-.75c0-.97-1.11-1.52-1.88-.94L18 6.66v3.09Z"/>
</svg>
